#18601
training sword academy practice~
an @BAc@Cad@Bem@Cia@n @Wtr@Bai@Cni@Wng @Dsw@Wor@Dd@n~
A blunted Academia training sword has been left here.~
~
5 0 0 0 0 an 0 0 0 0 0 0 0
0 1 4 5
4 2 0 1 0
A
19 1
#18602
padded novice vest academy~
a @Wpa@Ddd@Wed @Cno@Bvi@Cce @Wve@Dst@n~
A padded blue-and-silver novice vest rests here.~
~
9 0 0 0 0 ad 0 0 0 0 0 0 0
1 0 0 0
3 1 0 1 0
#18603
practice helm academy novice~
an @BAc@Cad@Bem@Cia@n @Wpr@Bac@Cti@Wce @Dhe@Wlm@n~
A simple padded practice helm rests here.~
~
9 0 0 0 0 ae 0 0 0 0 0 0 0
1 0 0 0
2 1 0 1 0
A
5 1
#18604
novice field cloak academy~
a @Cno@Bvi@Cce @Gfi@Yel@Gd @Wcl@Boa@Ck@n~
A durable novice field cloak has been folded here.~
~
9 0 0 0 0 ak 0 0 0 0 0 0 0
1 0 0 0
2 2 0 1 0
A
17 -3
A
4 1
#18605
academia signet ring novice~
an @BAc@Cad@Bem@Cia@n @Ysi@Wgn@Yet @Ori@Yng@n~
A plain silver Academia signet ring lies here.~
~
9 g 0 0 0 ab 0 0 0 0 0 0 0
1 0 0 0
1 1 0 1 0
A
17 -2
#18606
training dagger academy practice~
an @BAc@Cad@Bem@Cia@n @Wtr@Bai@Cni@Wng @Dda@Wgg@Der@n~
A blunted Academia training dagger lies here.~
~
5 0 0 0 0 ano 0 0 0 0 0 0 0
0 1 4 11
1 2 0 1 0
A
19 1
#18607
drake handler collar academy~
an @BAc@Cad@Bem@Cia@n @rdr@Rak@Oe @Dco@Wll@Dar@n~
A reinforced collar bearing the Academia crest lies here.~
~
9 g 0 0 0 ac 0 0 0 0 0 0 0
1 0 0 0
1 1 0 1 0
A
18 1
A
17 -1
#18608
brass practice key academy~
a @Ybr@Oas@Ys @BAc@Cad@Bem@Cia@n @Wpr@Bac@Cti@Wce @Yke@Wy@n~
A brass practice key stamped with the Academia crest lies here.~
~
18 c 0 0 0 a 0 0 0 0 0 0 0
1 0 0 0
1 0 0 0 0
#18609
academia lantern practice light~
an @BAc@Cad@Bem@Cia@n @Wpr@Bac@Cti@Wce @Yla@Ont@Yer@n~
A hooded Academia practice lantern gives off a steady glow.~
~
1 ag 0 0 0 a 0 0 0 0 0 0 0
0 0 -1 0
2 1 0 1 0
A
24 -1
#18610
padded horn guards minotaur trial~
a pair of @Wpa@Ddd@Wed @Yho@Orn @Dgu@War@Dds@n~
A pair of heavy padded horn guards lies here.~
~
9 0 0 0 0 ae 0 0 0 0 0 0 0
2 0 0 0
2 2 0 3 0
A
1 1
#18611
reinforced training hide academy~
a @Dre@Win@Dfo@Wrc@Ded @Btr@Cai@Bni@Cng @yhi@Ode@n~
A reinforced hide used in practical drills lies here.~
~
11 0 0 0 0 adk 0 0 0 0 0 0 0
0 0 0 0
4 2 0 3 0
A
17 -6
A
13 15
#18612
novice leggings academy~
a pair of @Cno@Bvi@Cce @Wle@Dgg@Win@Dgs@n~
A pair of sturdy novice leggings has been left here.~
~
9 0 0 0 0 af 0 0 0 0 0 0 0
1 0 0 0
3 1 0 1 0
#18613
novice sleeves academy~
a pair of @Cno@Bvi@Cce @Wsl@Dee@Wve@Ds@n~
A pair of padded novice sleeves rests here.~
~
9 0 0 0 0 ai 0 0 0 0 0 0 0
1 0 0 0
2 1 0 1 0
A
3 1
#18614
training mace academy practice~
an @BAc@Cad@Bem@Cia@n @Wtr@Bai@Cni@Wng @Dma@Wce@n~
A blunted Academia training mace rests here.~
~
5 0 0 0 0 an 0 0 0 0 0 0 0
0 1 5 5
5 2 0 2 0
A
17 -2
$~
