#34000
violet spectrum lens~
a violet spectrum lens~
A violet spectrum lens rests among the movable facets.~
~
8 0 0 0 0 a 0 0 0 0 0 0 0
0 0 0 0
0 0 0 0 0
#34001
flawless spectrum shard~
a flawless spectrum shard~
A flawless spectrum shard catches every nearby color.~
~
8 0 0 0 0 a 0 0 0 0 0 0 0
0 0 0 0
0 0 0 0 0
#34002
mantle tempered refraction prismatic~
a mantle of tempered refraction~
A mantle of tempered refraction folds the nearby light into quiet bands.~
~
9 0 0 0 0 ad 0 0 0 0 0 0 0
3 0 0 0
8 50000 0 20 0
#34003
heart prism edge blade~
the heart-prism edge~
The heart-prism edge divides every reflection along its narrow blade.~
~
5 0 0 0 0 an 0 0 0 0 0 0 0
0 2 5 3
6 75000 0 22 0
$~
